<?xml version="1.0" encoding="utf-8"?>
<!-- Generator: Adobe Illustrator 25.4.1, SVG Export Plug-In . SVG Version: 6.00 Build 0)  -->
<svg version="1.1" id="Layer_1" xmlns="http://www.w3.org/2000/svg" xmlns:xlink="http://www.w3.org/1999/xlink" x="0px" y="0px"
	 viewBox="0 0 106 56" style="enable-background:new 0 0 106 56;" xml:space="preserve">
<style type="text/css">
	.st0{fill:none;}
	.st1{fill:#21409A;}
	.st2{opacity:4.000000e-02;fill:url(#SVGID_1_);}
</style>
<pattern  x="161.7" y="64.4" width="53" height="56" patternUnits="userSpaceOnUse" id="New_Pattern_2" viewBox="24.2 -75.8 53 56" style="overflow:visible;">
	<g>
		<rect x="24.2" y="-75.8" class="st0" width="53" height="56"/>
		<path class="st1" d="M77.3-19.8l-4.5,4.5l-4.5-4.5l4.5-4.5L77.3-19.8z M72.8-16.6l3.2-3.2l-3.2-3.2l-3.2,3.2L72.8-16.6z
			 M77.3-19.8l-4.5,4.5l-4.5-4.5l4.5-4.5L77.3-19.8z M72.8-16.6l3.2-3.2l-3.2-3.2l-3.2,3.2L72.8-16.6z M77.3-19.8l-4.5,4.5l-4.5-4.5
			l4.5-4.5L77.3-19.8z M72.8-16.6l3.2-3.2l-3.2-3.2l-3.2,3.2L72.8-16.6z M77.3-19.8l-4.5,4.5l-4.5-4.5l4.5-4.5L77.3-19.8z
			 M72.8-16.6l3.2-3.2l-3.2-3.2l-3.2,3.2L72.8-16.6z M77.3-19.8l-4.5,4.5l-4.5-4.5l4.5-4.5L77.3-19.8z M72.8-16.6l3.2-3.2l-3.2-3.2
			l-3.2,3.2L72.8-16.6z M77.3-19.8l-4.5,4.5l-4.5-4.5l4.5-4.5L77.3-19.8z M72.8-16.6l3.2-3.2l-3.2-3.2l-3.2,3.2L72.8-16.6z
			 M92.6-19.8L89-16c-1.2,1.2-2.8,2-4.4,2.1v5.8h-5.9c-0.1,1.7-0.9,3.4-2.2,4.5L72.8,0L69-3.5c-1.3-1.2-2-2.8-2.1-4.5H61v-5.8
			c-1.7-0.2-3.3-0.9-4.4-2.1L53-19.8l3.5-3.8c1.2-1.2,2.8-2,4.4-2.1v-6h5.9c0.2-1.7,0.9-3.2,2.1-4.3l3.8-3.5l3.8,3.5
			c1.2,1.2,2,2.7,2.1,4.3h5.9v6c1.7,0.1,3.3,0.9,4.4,2.1L92.6-19.8z M73.2-29.2l2.5,2.5h4v4l2.5,2.4H91l-2.5-2.7
			c-1.1-1.2-2.6-1.9-4.2-1.9l-0.4,0v-6h-5.9l0-0.4c-0.1-1.6-0.7-3.1-1.9-4.2l-2.7-2.5V-29.2z M54.6-20.2h8.9l2.5-2.4v-4h4l2.3-2.3
			v-8.9l-2.7,2.5c-1.2,1.1-1.8,2.6-1.9,4.2l0,0.4h-5.9v6l-0.4,0c-1.6,0-3.2,0.7-4.2,1.9L54.6-20.2z M72.3-10.7L70-13h-4v-4l-2.4-2.4
			h-9l2.5,2.7c1.1,1.2,2.6,1.8,4.2,1.9l0.4,0V-9h5.9v0.4c0,1.6,0.7,3.2,1.9,4.3l2.7,2.5V-10.7z M72.9-11.4l2.5-2.5h3.5v-3.5l2.5-2.5
			l-2.5-2.5v-3.5h-3.5l-2.5-2.5l-2.5,2.5h-3.5v3.5l-2.5,2.5l2.5,2.5v3.5h3.5L72.9-11.4z M91-19.3h-8.9L79.7-17v4h-4l-2.5,2.5v8.9
			l2.7-2.5c1.2-1.1,1.9-2.7,1.9-4.3V-9h5.9v-5.8l0.4,0c1.6,0,3.1-0.7,4.2-1.9L91-19.3z M77.3-19.8l-4.5,4.5l-4.5-4.5l4.5-4.5
			L77.3-19.8z M72.8-16.6l3.2-3.2l-3.2-3.2l-3.2,3.2L72.8-16.6z M77.3-19.8l-4.5,4.5l-4.5-4.5l4.5-4.5L77.3-19.8z M72.8-16.6
			l3.2-3.2l-3.2-3.2l-3.2,3.2L72.8-16.6z M77.3-19.8l-4.5,4.5l-4.5-4.5l4.5-4.5L77.3-19.8z M72.8-16.6l3.2-3.2l-3.2-3.2l-3.2,3.2
			L72.8-16.6z M77.3-19.8l-4.5,4.5l-4.5-4.5l4.5-4.5L77.3-19.8z M72.8-16.6l3.2-3.2l-3.2-3.2l-3.2,3.2L72.8-16.6z M77.3-19.8
			l-4.5,4.5l-4.5-4.5l4.5-4.5L77.3-19.8z M72.8-16.6l3.2-3.2l-3.2-3.2l-3.2,3.2L72.8-16.6z M101.3-19.8c0,1.2-1,2.3-2.2,2.3
			c-1.2,0-2.3-1-2.3-2.3c0-1.2,1-2.2,2.3-2.2C100.3-22.1,101.3-21.1,101.3-19.8z M100.4-19.8c0-0.8-0.6-1.4-1.4-1.4
			c-0.8,0-1.4,0.6-1.4,1.4s0.6,1.4,1.4,1.4C99.8-18.5,100.4-19.1,100.4-19.8z"/>
		<path class="st1" d="M24.3-19.8l-4.5,4.5l-4.5-4.5l4.5-4.5L24.3-19.8z M19.8-16.6l3.2-3.2l-3.2-3.2l-3.2,3.2L19.8-16.6z
			 M24.3-19.8l-4.5,4.5l-4.5-4.5l4.5-4.5L24.3-19.8z M19.8-16.6l3.2-3.2l-3.2-3.2l-3.2,3.2L19.8-16.6z M24.3-19.8l-4.5,4.5l-4.5-4.5
			l4.5-4.5L24.3-19.8z M19.8-16.6l3.2-3.2l-3.2-3.2l-3.2,3.2L19.8-16.6z M24.3-19.8l-4.5,4.5l-4.5-4.5l4.5-4.5L24.3-19.8z
			 M19.8-16.6l3.2-3.2l-3.2-3.2l-3.2,3.2L19.8-16.6z M24.3-19.8l-4.5,4.5l-4.5-4.5l4.5-4.5L24.3-19.8z M19.8-16.6l3.2-3.2l-3.2-3.2
			l-3.2,3.2L19.8-16.6z M24.3-19.8l-4.5,4.5l-4.5-4.5l4.5-4.5L24.3-19.8z M19.8-16.6l3.2-3.2l-3.2-3.2l-3.2,3.2L19.8-16.6z
			 M39.6-19.8L36-16c-1.2,1.2-2.8,2-4.4,2.1v5.8h-5.9c-0.1,1.7-0.9,3.4-2.2,4.5L19.8,0L16-3.5c-1.3-1.2-2-2.8-2.1-4.5H8v-5.8
			C6.3-14,4.7-14.8,3.5-16L0-19.8l3.5-3.8c1.2-1.2,2.8-2,4.4-2.1v-6h5.9c0.2-1.7,0.9-3.2,2.1-4.3l3.8-3.5l3.8,3.5
			c1.2,1.2,2,2.7,2.1,4.3h5.9v6c1.7,0.1,3.3,0.9,4.4,2.1L39.6-19.8z M20.2-29.2l2.5,2.5h4v4l2.5,2.4H38l-2.5-2.7
			c-1.1-1.2-2.6-1.9-4.2-1.9l-0.4,0v-6h-5.9l0-0.4c-0.1-1.6-0.7-3.1-1.9-4.2l-2.7-2.5V-29.2z M1.6-20.2h8.9l2.5-2.4v-4h4l2.3-2.3
			v-8.9l-2.7,2.5c-1.2,1.1-1.8,2.6-1.9,4.2l0,0.4H8.9v6l-0.4,0c-1.6,0-3.2,0.7-4.2,1.9L1.6-20.2z M19.3-10.7L17-13h-4v-4l-2.4-2.4
			h-9l2.5,2.7c1.1,1.2,2.6,1.8,4.2,1.9l0.4,0V-9h5.9v0.4c0,1.6,0.7,3.2,1.9,4.3l2.7,2.5V-10.7z M19.9-11.4l2.5-2.5h3.5v-3.5l2.5-2.5
			l-2.5-2.5v-3.5h-3.5l-2.5-2.5l-2.5,2.5h-3.5v3.5l-2.5,2.5l2.5,2.5v3.5h3.5L19.9-11.4z M38-19.3h-8.9L26.7-17v4h-4l-2.5,2.5v8.9
			l2.7-2.5c1.2-1.1,1.9-2.7,1.9-4.3V-9h5.9v-5.8l0.4,0c1.6,0,3.1-0.7,4.2-1.9L38-19.3z M24.3-19.8l-4.5,4.5l-4.5-4.5l4.5-4.5
			L24.3-19.8z M19.8-16.6l3.2-3.2l-3.2-3.2l-3.2,3.2L19.8-16.6z M24.3-19.8l-4.5,4.5l-4.5-4.5l4.5-4.5L24.3-19.8z M19.8-16.6
			l3.2-3.2l-3.2-3.2l-3.2,3.2L19.8-16.6z M24.3-19.8l-4.5,4.5l-4.5-4.5l4.5-4.5L24.3-19.8z M19.8-16.6l3.2-3.2l-3.2-3.2l-3.2,3.2
			L19.8-16.6z M24.3-19.8l-4.5,4.5l-4.5-4.5l4.5-4.5L24.3-19.8z M19.8-16.6l3.2-3.2l-3.2-3.2l-3.2,3.2L19.8-16.6z M24.3-19.8
			l-4.5,4.5l-4.5-4.5l4.5-4.5L24.3-19.8z M19.8-16.6l3.2-3.2l-3.2-3.2l-3.2,3.2L19.8-16.6z M48.3-19.8c0,1.2-1,2.3-2.2,2.3
			c-1.2,0-2.3-1-2.3-2.3c0-1.2,1-2.2,2.3-2.2C47.3-22.1,48.3-21.1,48.3-19.8z M47.4-19.8c0-0.8-0.6-1.4-1.4-1.4
			c-0.8,0-1.4,0.6-1.4,1.4s0.6,1.4,1.4,1.4C46.8-18.5,47.4-19.1,47.4-19.8z"/>
		<path class="st1" d="M50.8-47.8l-4.5,4.5l-4.5-4.5l4.5-4.5L50.8-47.8z M46.3-44.6l3.2-3.2l-3.2-3.2l-3.2,3.2L46.3-44.6z
			 M50.8-47.8l-4.5,4.5l-4.5-4.5l4.5-4.5L50.8-47.8z M46.3-44.6l3.2-3.2l-3.2-3.2l-3.2,3.2L46.3-44.6z M50.8-47.8l-4.5,4.5l-4.5-4.5
			l4.5-4.5L50.8-47.8z M46.3-44.6l3.2-3.2l-3.2-3.2l-3.2,3.2L46.3-44.6z M50.8-47.8l-4.5,4.5l-4.5-4.5l4.5-4.5L50.8-47.8z
			 M46.3-44.6l3.2-3.2l-3.2-3.2l-3.2,3.2L46.3-44.6z M50.8-47.8l-4.5,4.5l-4.5-4.5l4.5-4.5L50.8-47.8z M46.3-44.6l3.2-3.2l-3.2-3.2
			l-3.2,3.2L46.3-44.6z M50.8-47.8l-4.5,4.5l-4.5-4.5l4.5-4.5L50.8-47.8z M46.3-44.6l3.2-3.2l-3.2-3.2l-3.2,3.2L46.3-44.6z
			 M66.1-47.8L62.5-44c-1.2,1.2-2.8,2-4.4,2.1v5.8h-5.9c-0.1,1.7-0.9,3.4-2.2,4.5L46.3-28l-3.8-3.5c-1.3-1.2-2-2.8-2.1-4.5h-5.9
			v-5.8C32.8-42,31.2-42.8,30-44l-3.5-3.8l3.5-3.8c1.2-1.2,2.8-2,4.4-2.1v-6h5.9c0.2-1.7,0.9-3.2,2.1-4.3l3.8-3.5L50-64
			c1.2,1.2,2,2.7,2.1,4.3h5.9v6c1.7,0.1,3.3,0.9,4.4,2.1L66.1-47.8z M46.7-57.2l2.5,2.5h4v4l2.5,2.4h8.8l-2.5-2.7
			c-1.1-1.2-2.6-1.9-4.2-1.9l-0.4,0v-6h-5.9l0-0.4c-0.1-1.6-0.7-3.1-1.9-4.2l-2.7-2.5V-57.2z M28.1-48.2h8.9l2.5-2.4v-4h4l2.3-2.3
			v-8.9l-2.7,2.5c-1.2,1.1-1.8,2.6-1.9,4.2l0,0.4h-5.9v6l-0.4,0c-1.6,0-3.2,0.7-4.2,1.9L28.1-48.2z M45.8-38.7L43.5-41h-4v-4
			l-2.4-2.4h-9l2.5,2.7c1.1,1.2,2.6,1.8,4.2,1.9l0.4,0v5.8h5.9v0.4c0,1.6,0.7,3.2,1.9,4.3l2.7,2.5V-38.7z M46.4-39.4l2.5-2.5h3.5
			v-3.5l2.5-2.5l-2.5-2.5v-3.5h-3.5l-2.5-2.5l-2.5,2.5h-3.5v3.5l-2.5,2.5l2.5,2.5v3.5h3.5L46.4-39.4z M64.5-47.3h-8.9L53.2-45v4h-4
			l-2.5,2.5v8.9l2.7-2.5c1.2-1.1,1.9-2.7,1.9-4.3V-37h5.9v-5.8l0.4,0c1.6,0,3.1-0.7,4.2-1.9L64.5-47.3z M50.8-47.8l-4.5,4.5
			l-4.5-4.5l4.5-4.5L50.8-47.8z M46.3-44.6l3.2-3.2l-3.2-3.2l-3.2,3.2L46.3-44.6z M50.8-47.8l-4.5,4.5l-4.5-4.5l4.5-4.5L50.8-47.8z
			 M46.3-44.6l3.2-3.2l-3.2-3.2l-3.2,3.2L46.3-44.6z M50.8-47.8l-4.5,4.5l-4.5-4.5l4.5-4.5L50.8-47.8z M46.3-44.6l3.2-3.2l-3.2-3.2
			l-3.2,3.2L46.3-44.6z M50.8-47.8l-4.5,4.5l-4.5-4.5l4.5-4.5L50.8-47.8z M46.3-44.6l3.2-3.2l-3.2-3.2l-3.2,3.2L46.3-44.6z
			 M50.8-47.8l-4.5,4.5l-4.5-4.5l4.5-4.5L50.8-47.8z M46.3-44.6l3.2-3.2l-3.2-3.2l-3.2,3.2L46.3-44.6z M74.8-47.8
			c0,1.2-1,2.3-2.2,2.3c-1.2,0-2.3-1-2.3-2.3c0-1.2,1-2.2,2.3-2.2C73.8-50.1,74.8-49.1,74.8-47.8z M73.9-47.8c0-0.8-0.6-1.4-1.4-1.4
			c-0.8,0-1.4,0.6-1.4,1.4s0.6,1.4,1.4,1.4C73.3-46.5,73.9-47.1,73.9-47.8z"/>
		<path class="st1" d="M77.3-75.8l-4.5,4.5l-4.5-4.5l4.5-4.5L77.3-75.8z M72.8-72.6l3.2-3.2l-3.2-3.2l-3.2,3.2L72.8-72.6z
			 M77.3-75.8l-4.5,4.5l-4.5-4.5l4.5-4.5L77.3-75.8z M72.8-72.6l3.2-3.2l-3.2-3.2l-3.2,3.2L72.8-72.6z M77.3-75.8l-4.5,4.5l-4.5-4.5
			l4.5-4.5L77.3-75.8z M72.8-72.6l3.2-3.2l-3.2-3.2l-3.2,3.2L72.8-72.6z M77.3-75.8l-4.5,4.5l-4.5-4.5l4.5-4.5L77.3-75.8z
			 M72.8-72.6l3.2-3.2l-3.2-3.2l-3.2,3.2L72.8-72.6z M77.3-75.8l-4.5,4.5l-4.5-4.5l4.5-4.5L77.3-75.8z M72.8-72.6l3.2-3.2l-3.2-3.2
			l-3.2,3.2L72.8-72.6z M77.3-75.8l-4.5,4.5l-4.5-4.5l4.5-4.5L77.3-75.8z M72.8-72.6l3.2-3.2l-3.2-3.2l-3.2,3.2L72.8-72.6z
			 M92.6-75.8L89-72c-1.2,1.2-2.8,2-4.4,2.1v5.8h-5.9c-0.1,1.7-0.9,3.4-2.2,4.5L72.8-56L69-59.5c-1.3-1.2-2-2.8-2.1-4.5H61v-5.8
			c-1.7-0.2-3.3-0.9-4.4-2.1L53-75.8l3.5-3.8c1.2-1.2,2.8-2,4.4-2.1v-6h5.9c0.2-1.7,0.9-3.2,2.1-4.3l3.8-3.5l3.8,3.5
			c1.2,1.2,2,2.7,2.1,4.3h5.9v6c1.7,0.1,3.3,0.9,4.4,2.1L92.6-75.8z M73.2-85.2l2.5,2.5h4v4l2.5,2.4H91l-2.5-2.7
			c-1.1-1.2-2.6-1.9-4.2-1.9l-0.4,0v-6h-5.9l0-0.4c-0.1-1.6-0.7-3.1-1.9-4.2l-2.7-2.5V-85.2z M54.6-76.2h8.9l2.5-2.4v-4h4l2.3-2.3
			v-8.9l-2.7,2.5c-1.2,1.1-1.8,2.6-1.9,4.2l0,0.4h-5.9v6l-0.4,0c-1.6,0-3.2,0.7-4.2,1.9L54.6-76.2z M72.3-66.7L70-69h-4v-4l-2.4-2.4
			h-9l2.5,2.7c1.1,1.2,2.6,1.8,4.2,1.9l0.4,0v5.8h5.9v0.4c0,1.6,0.7,3.2,1.9,4.3l2.7,2.5V-66.7z M72.9-67.4l2.5-2.5h3.5v-3.5
			l2.5-2.5l-2.5-2.5v-3.5h-3.5l-2.5-2.5l-2.5,2.5h-3.5v3.5l-2.5,2.5l2.5,2.5v3.5h3.5L72.9-67.4z M91-75.3h-8.9L79.7-73v4h-4
			l-2.5,2.5v8.9l2.7-2.5c1.2-1.1,1.9-2.7,1.9-4.3V-65h5.9v-5.8l0.4,0c1.6,0,3.1-0.7,4.2-1.9L91-75.3z M77.3-75.8l-4.5,4.5l-4.5-4.5
			l4.5-4.5L77.3-75.8z M72.8-72.6l3.2-3.2l-3.2-3.2l-3.2,3.2L72.8-72.6z M77.3-75.8l-4.5,4.5l-4.5-4.5l4.5-4.5L77.3-75.8z
			 M72.8-72.6l3.2-3.2l-3.2-3.2l-3.2,3.2L72.8-72.6z M77.3-75.8l-4.5,4.5l-4.5-4.5l4.5-4.5L77.3-75.8z M72.8-72.6l3.2-3.2l-3.2-3.2
			l-3.2,3.2L72.8-72.6z M77.3-75.8l-4.5,4.5l-4.5-4.5l4.5-4.5L77.3-75.8z M72.8-72.6l3.2-3.2l-3.2-3.2l-3.2,3.2L72.8-72.6z
			 M77.3-75.8l-4.5,4.5l-4.5-4.5l4.5-4.5L77.3-75.8z M72.8-72.6l3.2-3.2l-3.2-3.2l-3.2,3.2L72.8-72.6z M101.3-75.8
			c0,1.2-1,2.3-2.2,2.3c-1.2,0-2.3-1-2.3-2.3c0-1.2,1-2.2,2.3-2.2C100.3-78.1,101.3-77.1,101.3-75.8z M100.4-75.8
			c0-0.8-0.6-1.4-1.4-1.4c-0.8,0-1.4,0.6-1.4,1.4s0.6,1.4,1.4,1.4C99.8-74.5,100.4-75.1,100.4-75.8z"/>
		<path class="st1" d="M24.3-75.8l-4.5,4.5l-4.5-4.5l4.5-4.5L24.3-75.8z M19.8-72.6l3.2-3.2l-3.2-3.2l-3.2,3.2L19.8-72.6z
			 M24.3-75.8l-4.5,4.5l-4.5-4.5l4.5-4.5L24.3-75.8z M19.8-72.6l3.2-3.2l-3.2-3.2l-3.2,3.2L19.8-72.6z M24.3-75.8l-4.5,4.5l-4.5-4.5
			l4.5-4.5L24.3-75.8z M19.8-72.6l3.2-3.2l-3.2-3.2l-3.2,3.2L19.8-72.6z M24.3-75.8l-4.5,4.5l-4.5-4.5l4.5-4.5L24.3-75.8z
			 M19.8-72.6l3.2-3.2l-3.2-3.2l-3.2,3.2L19.8-72.6z M24.3-75.8l-4.5,4.5l-4.5-4.5l4.5-4.5L24.3-75.8z M19.8-72.6l3.2-3.2l-3.2-3.2
			l-3.2,3.2L19.8-72.6z M24.3-75.8l-4.5,4.5l-4.5-4.5l4.5-4.5L24.3-75.8z M19.8-72.6l3.2-3.2l-3.2-3.2l-3.2,3.2L19.8-72.6z
			 M39.6-75.8L36-72c-1.2,1.2-2.8,2-4.4,2.1v5.8h-5.9c-0.1,1.7-0.9,3.4-2.2,4.5L19.8-56L16-59.5c-1.3-1.2-2-2.8-2.1-4.5H8v-5.8
			C6.3-70,4.7-70.8,3.5-72L0-75.8l3.5-3.8c1.2-1.2,2.8-2,4.4-2.1v-6h5.9c0.2-1.7,0.9-3.2,2.1-4.3l3.8-3.5l3.8,3.5
			c1.2,1.2,2,2.7,2.1,4.3h5.9v6c1.7,0.1,3.3,0.9,4.4,2.1L39.6-75.8z M20.2-85.2l2.5,2.5h4v4l2.5,2.4H38l-2.5-2.7
			c-1.1-1.2-2.6-1.9-4.2-1.9l-0.4,0v-6h-5.9l0-0.4c-0.1-1.6-0.7-3.1-1.9-4.2l-2.7-2.5V-85.2z M1.6-76.2h8.9l2.5-2.4v-4h4l2.3-2.3
			v-8.9l-2.7,2.5c-1.2,1.1-1.8,2.6-1.9,4.2l0,0.4H8.9v6l-0.4,0c-1.6,0-3.2,0.7-4.2,1.9L1.6-76.2z M19.3-66.7L17-69h-4v-4l-2.4-2.4
			h-9l2.5,2.7c1.1,1.2,2.6,1.8,4.2,1.9l0.4,0v5.8h5.9v0.4c0,1.6,0.7,3.2,1.9,4.3l2.7,2.5V-66.7z M19.9-67.4l2.5-2.5h3.5v-3.5
			l2.5-2.5l-2.5-2.5v-3.5h-3.5l-2.5-2.5l-2.5,2.5h-3.5v3.5l-2.5,2.5l2.5,2.5v3.5h3.5L19.9-67.4z M38-75.3h-8.9L26.7-73v4h-4
			l-2.5,2.5v8.9l2.7-2.5c1.2-1.1,1.9-2.7,1.9-4.3V-65h5.9v-5.8l0.4,0c1.6,0,3.1-0.7,4.2-1.9L38-75.3z M24.3-75.8l-4.5,4.5l-4.5-4.5
			l4.5-4.5L24.3-75.8z M19.8-72.6l3.2-3.2l-3.2-3.2l-3.2,3.2L19.8-72.6z M24.3-75.8l-4.5,4.5l-4.5-4.5l4.5-4.5L24.3-75.8z
			 M19.8-72.6l3.2-3.2l-3.2-3.2l-3.2,3.2L19.8-72.6z M24.3-75.8l-4.5,4.5l-4.5-4.5l4.5-4.5L24.3-75.8z M19.8-72.6l3.2-3.2l-3.2-3.2
			l-3.2,3.2L19.8-72.6z M24.3-75.8l-4.5,4.5l-4.5-4.5l4.5-4.5L24.3-75.8z M19.8-72.6l3.2-3.2l-3.2-3.2l-3.2,3.2L19.8-72.6z
			 M24.3-75.8l-4.5,4.5l-4.5-4.5l4.5-4.5L24.3-75.8z M19.8-72.6l3.2-3.2l-3.2-3.2l-3.2,3.2L19.8-72.6z M48.3-75.8
			c0,1.2-1,2.3-2.2,2.3c-1.2,0-2.3-1-2.3-2.3c0-1.2,1-2.2,2.3-2.2C47.3-78.1,48.3-77.1,48.3-75.8z M47.4-75.8c0-0.8-0.6-1.4-1.4-1.4
			c-0.8,0-1.4,0.6-1.4,1.4s0.6,1.4,1.4,1.4C46.8-74.5,47.4-75.1,47.4-75.8z"/>
	</g>
</pattern>
<pattern  id="SVGID_1_" xlink:href="#New_Pattern_2" patternTransform="matrix(1 0 0 1 -26.9235 2.1842)">
</pattern>
<rect class="st2" width="106" height="56"/>
</svg>
