<?xml version="1.0" encoding="utf-8"?>
<!-- Generator: Adobe Illustrator 25.4.1, SVG Export Plug-In . SVG Version: 6.00 Build 0)  -->
<svg version="1.1" id="Layer_1" xmlns="http://www.w3.org/2000/svg" xmlns:xlink="http://www.w3.org/1999/xlink" x="0px" y="0px"
	 viewBox="0 0 60 60" style="enable-background:new 0 0 60 60;" xml:space="preserve">
<style type="text/css">
	.st0{opacity:3.000000e-02;}
	.st1{fill:none;stroke:#2E5F79;stroke-linecap:round;stroke-linejoin:round;stroke-miterlimit:10;}
</style>
<g class="st0">
	<line class="st1" x1="4.4" y1="4.4" x2="0" y2="6.2"/>
	<line class="st1" x1="4.4" y1="4.4" x2="6.2" y2="0"/>
	<line class="st1" x1="4.4" y1="25.6" x2="6.2" y2="30"/>
	<line class="st1" x1="4.4" y1="25.6" x2="0" y2="23.8"/>
	<line class="st1" x1="25.6" y1="25.6" x2="30" y2="23.8"/>
	<line class="st1" x1="25.6" y1="25.6" x2="23.8" y2="30"/>
	<line class="st1" x1="23.8" y1="0" x2="25.6" y2="4.4"/>
	<line class="st1" x1="2.2" y1="9.7" x2="2.2" y2="9.7"/>
	<line class="st1" x1="2.2" y1="20.3" x2="2.2" y2="20.3"/>
	<line class="st1" x1="15" y1="30" x2="4.4" y2="25.6"/>
	<line class="st1" x1="2.2" y1="20.3" x2="2.2" y2="20.3"/>
	<line class="st1" x1="15" y1="30" x2="25.6" y2="25.6"/>
	<line class="st1" x1="25.6" y1="25.6" x2="27.8" y2="20.3"/>
	<line class="st1" x1="2.2" y1="9.7" x2="2.2" y2="9.7"/>
	<polyline class="st1" points="2.2,9.7 0,15 2.2,20.3 	"/>
	<line class="st1" x1="2.2" y1="20.3" x2="4.4" y2="25.6"/>
	<line class="st1" x1="2.2" y1="9.7" x2="2.2" y2="9.7"/>
	<line class="st1" x1="27.8" y1="20.3" x2="30" y2="15"/>
	<line class="st1" x1="27.8" y1="9.7" x2="30" y2="15"/>
	<line class="st1" x1="4.4" y1="4.4" x2="2.2" y2="9.7"/>
	<polyline class="st1" points="4.4,4.4 15,0 25.6,4.4 	"/>
	<line class="st1" x1="2.2" y1="20.3" x2="2.2" y2="20.3"/>
	<line class="st1" x1="25.6" y1="4.4" x2="27.8" y2="9.7"/>
	<line class="st1" x1="25.6" y1="4.4" x2="30" y2="6.2"/>
	<polyline class="st1" points="9.7,27.8 15,24.7 20.3,27.8 	"/>
	<polyline class="st1" points="2.2,20.3 5.3,15 2.2,9.7 	"/>
	<polyline class="st1" points="9.7,27.8 8.1,21.9 2.2,20.3 	"/>
	<polyline class="st1" points="9.7,2.2 8.1,8.1 2.2,9.7 	"/>
	<line class="st1" x1="2.2" y1="9.7" x2="2.2" y2="9.7"/>
	<polyline class="st1" points="20.3,2.2 15,5.3 9.7,2.2 	"/>
	<line class="st1" x1="2.2" y1="20.3" x2="2.2" y2="20.3"/>
	<polyline class="st1" points="20.3,27.8 21.9,21.9 27.8,20.3 	"/>
	<line class="st1" x1="2.2" y1="20.3" x2="2.2" y2="20.3"/>
	<polyline class="st1" points="27.8,20.3 24.7,15 27.8,9.7 	"/>
	<polyline class="st1" points="20.3,2.2 21.9,8.1 27.8,9.7 	"/>
	<line class="st1" x1="2.2" y1="9.7" x2="2.2" y2="9.7"/>
	<line class="st1" x1="2.2" y1="20.3" x2="2.2" y2="20.3"/>
	<line class="st1" x1="2.2" y1="9.7" x2="2.2" y2="9.7"/>
	<line class="st1" x1="2.2" y1="9.7" x2="2.2" y2="9.7"/>
	<line class="st1" x1="2.2" y1="20.3" x2="2.2" y2="20.3"/>
	<line class="st1" x1="30" y1="6.2" x2="34.4" y2="4.4"/>
	<line class="st1" x1="36.2" y1="0" x2="34.4" y2="4.4"/>
	<line class="st1" x1="34.4" y1="25.6" x2="36.2" y2="30"/>
	<line class="st1" x1="34.4" y1="25.6" x2="30" y2="23.8"/>
	<line class="st1" x1="55.6" y1="25.6" x2="60" y2="23.8"/>
	<line class="st1" x1="55.6" y1="25.6" x2="53.8" y2="30"/>
	<line class="st1" x1="53.8" y1="0" x2="55.6" y2="4.4"/>
	<line class="st1" x1="32.2" y1="9.7" x2="32.2" y2="9.7"/>
	<polyline class="st1" points="57.8,20.3 60,15 57.8,9.7 	"/>
	<line class="st1" x1="32.2" y1="20.3" x2="32.2" y2="20.3"/>
	<line class="st1" x1="32.2" y1="9.7" x2="32.2" y2="9.7"/>
	<polyline class="st1" points="55.6,4.4 45,0 34.4,4.4 	"/>
	<line class="st1" x1="32.2" y1="9.7" x2="32.2" y2="9.7"/>
	<line class="st1" x1="45" y1="30" x2="55.6" y2="25.6"/>
	<line class="st1" x1="55.6" y1="4.4" x2="57.8" y2="9.7"/>
	<line class="st1" x1="32.2" y1="20.3" x2="32.2" y2="20.3"/>
	<line class="st1" x1="34.4" y1="4.4" x2="32.2" y2="9.7"/>
	<line class="st1" x1="45" y1="30" x2="34.4" y2="25.6"/>
	<line class="st1" x1="55.6" y1="25.6" x2="57.8" y2="20.3"/>
	<line class="st1" x1="32.2" y1="20.3" x2="32.2" y2="20.3"/>
	<line class="st1" x1="30" y1="15" x2="32.2" y2="20.3"/>
	<line class="st1" x1="32.2" y1="9.7" x2="30" y2="15"/>
	<line class="st1" x1="32.2" y1="20.3" x2="34.4" y2="25.6"/>
	<line class="st1" x1="55.6" y1="4.4" x2="60" y2="6.2"/>
	<polyline class="st1" points="39.7,2.2 45,5.3 50.3,2.2 	"/>
	<line class="st1" x1="32.2" y1="9.7" x2="32.2" y2="9.7"/>
	<polyline class="st1" points="50.3,2.2 51.9,8.1 57.8,9.7 	"/>
	<polyline class="st1" points="57.8,20.3 54.7,15 57.8,9.7 	"/>
	<polyline class="st1" points="50.3,27.8 51.9,21.9 57.8,20.3 	"/>
	<line class="st1" x1="32.2" y1="20.3" x2="32.2" y2="20.3"/>
	<polyline class="st1" points="50.3,27.8 45,24.7 39.7,27.8 	"/>
	<line class="st1" x1="32.2" y1="9.7" x2="32.2" y2="9.7"/>
	<polyline class="st1" points="39.7,27.8 38.1,21.9 32.2,20.3 	"/>
	<polyline class="st1" points="39.7,2.2 38.1,8.1 32.2,9.7 	"/>
	<line class="st1" x1="32.2" y1="20.3" x2="32.2" y2="20.3"/>
	<polyline class="st1" points="32.2,9.7 35.3,15 32.2,20.3 	"/>
	<line class="st1" x1="32.2" y1="20.3" x2="32.2" y2="20.3"/>
	<line class="st1" x1="32.2" y1="9.7" x2="32.2" y2="9.7"/>
	<line class="st1" x1="32.2" y1="20.3" x2="32.2" y2="20.3"/>
	<line class="st1" x1="32.2" y1="9.7" x2="32.2" y2="9.7"/>
	<line class="st1" x1="0" y1="36.2" x2="4.4" y2="34.4"/>
	<line class="st1" x1="6.2" y1="30" x2="4.4" y2="34.4"/>
	<line class="st1" x1="4.4" y1="55.6" x2="6.2" y2="60"/>
	<line class="st1" x1="0" y1="53.8" x2="4.4" y2="55.6"/>
	<line class="st1" x1="25.6" y1="55.6" x2="30" y2="53.8"/>
	<line class="st1" x1="25.6" y1="55.6" x2="23.8" y2="60"/>
	<line class="st1" x1="25.6" y1="34.4" x2="23.8" y2="30"/>
	<polyline class="st1" points="25.6,55.6 15,60 4.4,55.6 	"/>
	<line class="st1" x1="4.4" y1="34.4" x2="2.2" y2="39.7"/>
	<polyline class="st1" points="2.2,39.7 0,45 2.2,50.3 	"/>
	<line class="st1" x1="27.8" y1="50.3" x2="30" y2="45"/>
	<line class="st1" x1="27.8" y1="39.7" x2="30" y2="45"/>
	<line class="st1" x1="2.2" y1="39.7" x2="2.2" y2="39.7"/>
	<line class="st1" x1="2.2" y1="50.3" x2="4.4" y2="55.6"/>
	<line class="st1" x1="25.6" y1="55.6" x2="27.8" y2="50.3"/>
	<line class="st1" x1="15" y1="30" x2="25.6" y2="34.4"/>
	<line class="st1" x1="2.2" y1="50.3" x2="2.2" y2="50.3"/>
	<line class="st1" x1="2.2" y1="39.7" x2="2.2" y2="39.7"/>
	<line class="st1" x1="2.2" y1="39.7" x2="2.2" y2="39.7"/>
	<line class="st1" x1="27.8" y1="39.7" x2="25.6" y2="34.4"/>
	<line class="st1" x1="2.2" y1="50.3" x2="2.2" y2="50.3"/>
	<line class="st1" x1="15" y1="30" x2="4.4" y2="34.4"/>
	<line class="st1" x1="2.2" y1="50.3" x2="2.2" y2="50.3"/>
	<line class="st1" x1="25.6" y1="34.4" x2="30" y2="36.2"/>
	<line class="st1" x1="2.2" y1="50.3" x2="2.2" y2="50.3"/>
	<polyline class="st1" points="20.3,57.8 15,54.7 9.7,57.8 	"/>
	<line class="st1" x1="2.2" y1="39.7" x2="2.2" y2="39.7"/>
	<polyline class="st1" points="9.7,32.2 15,35.3 20.3,32.2 	"/>
	<polyline class="st1" points="9.7,32.2 8.1,38.1 2.2,39.7 	"/>
	<line class="st1" x1="2.2" y1="39.7" x2="2.2" y2="39.7"/>
	<polyline class="st1" points="27.8,50.3 24.7,45 27.8,39.7 	"/>
	<polyline class="st1" points="2.2,39.7 5.3,45 2.2,50.3 	"/>
	<polyline class="st1" points="20.3,32.2 21.9,38.1 27.8,39.7 	"/>
	<polyline class="st1" points="9.7,57.8 8.1,51.9 2.2,50.3 	"/>
	<polyline class="st1" points="20.3,57.8 21.9,51.9 27.8,50.3 	"/>
	<line class="st1" x1="2.2" y1="50.3" x2="2.2" y2="50.3"/>
	<line class="st1" x1="2.2" y1="50.3" x2="2.2" y2="50.3"/>
	<line class="st1" x1="2.2" y1="39.7" x2="2.2" y2="39.7"/>
	<line class="st1" x1="2.2" y1="39.7" x2="2.2" y2="39.7"/>
	<line class="st1" x1="2.2" y1="50.3" x2="2.2" y2="50.3"/>
	<line class="st1" x1="30" y1="36.2" x2="34.4" y2="34.4"/>
	<line class="st1" x1="36.2" y1="30" x2="34.4" y2="34.4"/>
	<line class="st1" x1="34.4" y1="55.6" x2="36.2" y2="60"/>
	<line class="st1" x1="30" y1="53.8" x2="34.4" y2="55.6"/>
	<line class="st1" x1="55.6" y1="55.6" x2="60" y2="53.8"/>
	<line class="st1" x1="55.6" y1="55.6" x2="53.8" y2="60"/>
	<line class="st1" x1="55.6" y1="34.4" x2="53.8" y2="30"/>
	<line class="st1" x1="32.2" y1="50.3" x2="32.2" y2="50.3"/>
	<polyline class="st1" points="57.8,50.3 60,45 57.8,39.7 	"/>
	<line class="st1" x1="45" y1="30" x2="55.6" y2="34.4"/>
	<line class="st1" x1="30" y1="45" x2="32.2" y2="39.7"/>
	<line class="st1" x1="30" y1="45" x2="32.2" y2="50.3"/>
	<line class="st1" x1="45" y1="30" x2="34.4" y2="34.4"/>
	<polyline class="st1" points="55.6,55.6 45,60 34.4,55.6 	"/>
	<line class="st1" x1="55.6" y1="55.6" x2="57.8" y2="50.3"/>
	<line class="st1" x1="57.8" y1="39.7" x2="55.6" y2="34.4"/>
	<line class="st1" x1="34.4" y1="34.4" x2="32.2" y2="39.7"/>
	<line class="st1" x1="32.2" y1="39.7" x2="32.2" y2="39.7"/>
	<line class="st1" x1="32.2" y1="50.3" x2="34.4" y2="55.6"/>
	<line class="st1" x1="32.2" y1="39.7" x2="32.2" y2="39.7"/>
	<line class="st1" x1="32.2" y1="50.3" x2="32.2" y2="50.3"/>
	<line class="st1" x1="32.2" y1="50.3" x2="32.2" y2="50.3"/>
	<line class="st1" x1="32.2" y1="39.7" x2="32.2" y2="39.7"/>
	<line class="st1" x1="55.6" y1="34.4" x2="60" y2="36.2"/>
	<polyline class="st1" points="50.3,32.2 51.9,38.1 57.8,39.7 	"/>
	<polyline class="st1" points="39.7,57.8 38.1,51.9 32.2,50.3 	"/>
	<line class="st1" x1="32.2" y1="39.7" x2="32.2" y2="39.7"/>
	<line class="st1" x1="32.2" y1="39.7" x2="32.2" y2="39.7"/>
	<polyline class="st1" points="39.7,32.2 45,35.3 50.3,32.2 	"/>
	<polyline class="st1" points="32.2,39.7 35.3,45 32.2,50.3 	"/>
	<polyline class="st1" points="50.3,57.8 51.9,51.9 57.8,50.3 	"/>
	<polyline class="st1" points="50.3,57.8 45,54.7 39.7,57.8 	"/>
	<polyline class="st1" points="57.8,50.3 54.7,45 57.8,39.7 	"/>
	<polyline class="st1" points="39.7,32.2 38.1,38.1 32.2,39.7 	"/>
	<line class="st1" x1="32.2" y1="50.3" x2="32.2" y2="50.3"/>
	<line class="st1" x1="32.2" y1="50.3" x2="32.2" y2="50.3"/>
	<line class="st1" x1="32.2" y1="50.3" x2="32.2" y2="50.3"/>
	<line class="st1" x1="32.2" y1="50.3" x2="32.2" y2="50.3"/>
	<line class="st1" x1="32.2" y1="39.7" x2="32.2" y2="39.7"/>
	<line class="st1" x1="32.2" y1="39.7" x2="32.2" y2="39.7"/>
</g>
</svg>
