<?xml version="1.0" encoding="utf-8"?>
<!-- Generator: Adobe Illustrator 25.4.1, SVG Export Plug-In . SVG Version: 6.00 Build 0)  -->
<svg version="1.1" id="Layer_1" xmlns="http://www.w3.org/2000/svg" xmlns:xlink="http://www.w3.org/1999/xlink" x="0px" y="0px"
	 viewBox="0 0 60 60" style="enable-background:new 0 0 60 60;" xml:space="preserve">
<style type="text/css">
	.st0{opacity:0.03;}
	.st1{fill:none;stroke:#426B57;stroke-linecap:round;stroke-linejoin:round;stroke-miterlimit:10;}
</style>
<g class="st0">
	
		<rect id="XMLID_00000173849807195898516470000016568620694112852889_" x="19.53" y="19.53" transform="matrix(0.7071 -0.7071 0.7071 0.7071 -12.4264 30)" class="st1" width="20.93" height="20.93"/>
	<g id="XMLID_00000069364561936816205330000002483695487724418447_">
		<line id="XMLID_00000088130410757165018760000010048066718465193143_" class="st1" x1="30" y1="23.52" x2="30" y2="36.48"/>
		<line id="XMLID_00000157272867735508463270000006414383426310222735_" class="st1" x1="36.48" y1="30" x2="23.52" y2="30"/>
	</g>
	<g id="XMLID_00000172407579888855933910000007380094510161367997_">
		<g id="XMLID_00000037669470185927919310000000580784967618106767_">
			<path id="XMLID_00000081635344749263656330000017462646201732639107_" class="st1" d="M0.69,0.69c0,0,6.42,5.28,11.42,4.76
				c5-0.51,5.51-4.76,5.51-4.76H0.69z"/>
			<path id="XMLID_00000131328034706206898120000005780288839044834725_" class="st1" d="M0.69,0.69c0,0,5.28,6.42,4.76,11.42
				c-0.51,5-4.76,5.51-4.76,5.51V0.69z"/>
		</g>
		<g id="XMLID_00000174582577343977664410000004800900899961685912_">
			<path id="XMLID_00000055702513597451412910000014789269004383524787_" class="st1" d="M59.31,0.69c0,0-6.42,5.28-11.42,4.76
				s-5.51-4.76-5.51-4.76H59.31z"/>
			<path id="XMLID_00000030467816185958566470000015593925843767426463_" class="st1" d="M59.31,0.69c0,0-5.28,6.42-4.76,11.42
				c0.51,5,4.76,5.51,4.76,5.51V0.69z"/>
		</g>
	</g>
	<g id="XMLID_00000142887393909540527940000013075866772890675606_">
		<g id="XMLID_00000059292947942084671640000002839160907644203904_">
			<path id="XMLID_00000147905798093070508550000002521669942117587603_" class="st1" d="M0.69,59.31c0,0,6.42-5.28,11.42-4.76
				c5,0.51,5.51,4.76,5.51,4.76H0.69z"/>
			<path id="XMLID_00000098190276136282629280000010404493281399456143_" class="st1" d="M0.69,59.31c0,0,5.28-6.42,4.76-11.42
				c-0.51-5-4.76-5.51-4.76-5.51V59.31z"/>
		</g>
		<g id="XMLID_00000181062859731798195230000011548384380323451283_">
			<path id="XMLID_00000031180504133576747250000002555378382501966467_" class="st1" d="M59.31,59.31c0,0-6.42-5.28-11.42-4.76
				c-5,0.51-5.51,4.76-5.51,4.76H59.31z"/>
			<path id="XMLID_00000176742184285241466650000009559327172771334067_" class="st1" d="M59.31,59.31c0,0-5.28-6.42-4.76-11.42
				c0.51-5,4.76-5.51,4.76-5.51V59.31z"/>
		</g>
	</g>
	<g id="XMLID_00000049204033682640785980000010108734316762282380_">
		<path id="XMLID_00000087371328175136051040000015474056484358167470_" class="st1" d="M22.99,44.03
			c0.52,5.17,5.89,5.06,7.01,15.28c1.12-10.22,6.49-10.11,7.01-15.28c0.52-5.17-7.01-7.55-7.01-7.55S22.47,38.87,22.99,44.03z"/>
		<path id="XMLID_00000106840156294792083790000016609111135889058744_" class="st1" d="M44.03,37.01
			c5.17-0.52,5.06-5.89,15.28-7.01c-10.22-1.12-10.11-6.49-15.28-7.01C38.87,22.47,36.48,30,36.48,30S38.87,37.53,44.03,37.01z"/>
		<path id="XMLID_00000154425691384996371450000005307558470832405410_" class="st1" d="M15.97,22.99
			C10.8,23.51,10.91,28.88,0.69,30c10.22,1.12,10.11,6.49,15.28,7.01c5.17,0.52,7.55-7.01,7.55-7.01S21.13,22.47,15.97,22.99z"/>
		<path id="XMLID_00000173869486130032247410000008993699217008419756_" class="st1" d="M44.88,25.03
			c3.28-4.02-0.59-7.74,5.85-15.76c-8.02,6.44-11.74,2.56-15.76,5.85c-4.02,3.28-0.38,10.3-0.38,10.3S41.6,29.06,44.88,25.03z"/>
		<path id="XMLID_00000135660475042607255020000016981057566525585799_" class="st1" d="M15.12,34.97
			c-3.28,4.02,0.59,7.74-5.85,15.76c8.02-6.44,11.74-2.56,15.76-5.85c4.02-3.28,0.38-10.3,0.38-10.3S18.4,30.94,15.12,34.97z"/>
		<path id="XMLID_00000119113907396974682550000000404021089701826995_" class="st1" d="M34.97,44.88
			c4.02,3.28,7.74-0.59,15.76,5.85c-6.44-8.02-2.56-11.74-5.85-15.76c-3.28-4.02-10.3-0.38-10.3-0.38S30.94,41.6,34.97,44.88z"/>
		<path id="XMLID_00000150818382082117191370000005314468499737496465_" class="st1" d="M25.03,15.12
			c-4.02-3.28-7.74,0.59-15.76-5.85c6.44,8.02,2.56,11.74,5.85,15.76c3.28,4.02,10.3,0.38,10.3,0.38S29.06,18.4,25.03,15.12z"/>
		<path id="XMLID_00000100346963892610005390000006753976771462245036_" class="st1" d="M37.01,15.97
			C36.49,10.8,31.12,10.91,30,0.69c-1.12,10.22-6.49,10.11-7.01,15.28C22.47,21.13,30,23.52,30,23.52S37.53,21.13,37.01,15.97z"/>
	</g>
</g>
</svg>
