<?xml version="1.0" encoding="utf-8"?>
<!-- Generator: Adobe Illustrator 25.4.1, SVG Export Plug-In . SVG Version: 6.00 Build 0)  -->
<svg version="1.1" id="Layer_1" xmlns="http://www.w3.org/2000/svg" xmlns:xlink="http://www.w3.org/1999/xlink" x="0px" y="0px"
	 viewBox="0 0 60 60" style="enable-background:new 0 0 60 60;" xml:space="preserve">
<style type="text/css">
	.st0{fill:none;}
	.st1{opacity:0.1;}
	.st2{fill:none;stroke:#2E5F79;stroke-width:1.2233;stroke-linecap:round;stroke-linejoin:round;stroke-miterlimit:10;}
	.st3{opacity:0;fill:none;stroke:#2E5F79;stroke-width:1.2233;stroke-linecap:round;stroke-linejoin:round;stroke-miterlimit:10;}
	.st4{opacity:5.000000e-02;}
	.st5{fill:none;stroke:#2E5F79;stroke-linecap:round;stroke-linejoin:round;stroke-miterlimit:10;}
	
		.st6{fill:url(#New_Pattern_3);stroke:#2E5F79;stroke-width:1.2233;stroke-linecap:round;stroke-linejoin:round;stroke-miterlimit:10;}
</style>
<pattern  width="30" height="30" patternUnits="userSpaceOnUse" id="New_Pattern_3" viewBox="30.6 -60.6 30 30" style="overflow:visible;">
	<g>
		<rect x="30.6" y="-60.6" class="st0" width="30" height="30"/>
		<g class="st1">
			<g>
				<polygon id="XMLID_00000147206866539933569540000007751588711448532632_" class="st2" points="90.6,-15.6 86.2,-5 75.6,-0.6 
					65,-5 60.6,-15.6 65,-26.2 75.6,-30.6 86.2,-26.2 				"/>
			</g>
		</g>
		<g class="st1">
			<g>
				<line id="XMLID_00000183230100067549102490000015929979532445586568_" class="st2" x1="36.8" y1="-30.6" x2="35" y2="-26.2"/>
				<line id="XMLID_00000172400437529618702310000013072191510698472585_" class="st2" x1="54.4" y1="-30.6" x2="56.2" y2="-26.2"/>
				<polygon id="XMLID_00000139289142546499750570000012468825446817323440_" class="st2" points="60.6,-15.6 56.2,-5 45.6,-0.6 
					35,-5 30.6,-15.6 35,-26.2 45.6,-30.6 56.2,-26.2 				"/>
			</g>
		</g>
		<g class="st1">
			<g>
				<polygon id="XMLID_00000052788731383804785690000018334790949342652068_" class="st2" points="30.6,-15.6 26.2,-5 15.6,-0.6 
					5,-5 0.6,-15.6 5,-26.2 15.6,-30.6 26.2,-26.2 				"/>
			</g>
		</g>
		<g class="st1">
			<g>
				<line id="XMLID_00000165219251360492913500000004827942006976169650_" class="st2" x1="60.6" y1="-54.4" x2="65" y2="-56.2"/>
				<line id="XMLID_00000156570531260428082040000010028440041210369181_" class="st2" x1="60.6" y1="-36.8" x2="65" y2="-35"/>
				<polygon id="XMLID_00000122716329215311131880000011973287674633196423_" class="st2" points="90.6,-45.6 86.2,-35 75.6,-30.6 
					65,-35 60.6,-45.6 65,-56.2 75.6,-60.6 86.2,-56.2 				"/>
			</g>
		</g>
		<g class="st1">
			<g>
				<line id="XMLID_00000026870949487130184540000017474941703842178480_" class="st2" x1="30.6" y1="-54.4" x2="35" y2="-56.2"/>
				<line id="XMLID_00000063606763426527344030000005379173688593372571_" class="st2" x1="36.8" y1="-60.6" x2="35" y2="-56.2"/>
				<line id="XMLID_00000024712901760570004810000005836814381834758067_" class="st2" x1="35" y1="-35" x2="36.8" y2="-30.6"/>
				<line id="XMLID_00000026853663035868493260000008733498904653639813_" class="st2" x1="30.6" y1="-36.8" x2="35" y2="-35"/>
				<line id="XMLID_00000161589298978029813550000014092096256843928996_" class="st2" x1="60.6" y1="-36.8" x2="56.2" y2="-35"/>
				<line id="XMLID_00000103948376900742313340000003088687282013721510_" class="st2" x1="56.2" y1="-35" x2="54.4" y2="-30.6"/>
				<line id="XMLID_00000098208161507863537340000015083794914334277559_" class="st2" x1="54.4" y1="-60.6" x2="56.2" y2="-56.2"/>
				<polygon id="XMLID_00000157279167997958078780000018268002230022027950_" class="st2" points="60.6,-45.6 56.2,-35 45.6,-30.6 
					35,-35 30.6,-45.6 35,-56.2 45.6,-60.6 56.2,-56.2 				"/>
				<line id="XMLID_00000165205978057824115540000009087148340325969829_" class="st2" x1="60.6" y1="-54.4" x2="56.2" y2="-56.2"/>
				<polygon id="XMLID_00000044170813561908012840000011373827487339002277_" class="st3" points="45.6,-55.3 50.9,-58.4 
					52.5,-52.5 58.4,-50.9 55.3,-45.6 58.4,-40.3 52.5,-38.8 50.9,-32.8 45.6,-35.9 40.3,-32.8 38.8,-38.8 32.8,-40.3 35.9,-45.6 
					32.8,-50.9 38.8,-52.5 40.3,-58.4 				"/>
				<polygon id="XMLID_00000074406441148480387240000008525997051728938422_" class="st2" points="45.6,-52.5 50.9,-58.4 
					50.5,-50.5 58.4,-50.9 52.5,-45.6 58.4,-40.3 50.5,-40.7 50.9,-32.8 45.6,-38.7 40.3,-32.8 40.7,-40.7 32.8,-40.3 38.7,-45.6 
					32.8,-50.9 40.7,-50.5 40.3,-58.4 				"/>
			</g>
		</g>
		<g class="st1">
			<g>
				<line id="XMLID_00000046326275905101559450000006494776912087400376_" class="st2" x1="30.6" y1="-36.8" x2="26.2" y2="-35"/>
				<polygon id="XMLID_00000180334949482756664320000005935655436177478577_" class="st2" points="30.6,-45.6 26.2,-35 15.6,-30.6 
					5,-35 0.6,-45.6 5,-56.2 15.6,-60.6 26.2,-56.2 				"/>
				<line id="XMLID_00000150823929976454895680000009528230116139990677_" class="st2" x1="30.6" y1="-54.4" x2="26.2" y2="-56.2"/>
			</g>
		</g>
		<g class="st1">
			<g>
				<polygon id="XMLID_00000109000217284913760580000003334604921501431736_" class="st2" points="90.6,-75.6 86.2,-65 75.6,-60.6 
					65,-65 60.6,-75.6 65,-86.2 75.6,-90.6 86.2,-86.2 				"/>
			</g>
		</g>
		<g class="st1">
			<g>
				<line id="XMLID_00000003062496992483071580000003069117781867472035_" class="st2" x1="35" y1="-65" x2="36.8" y2="-60.6"/>
				<line id="XMLID_00000136412188585966535270000012053236676291638450_" class="st2" x1="56.2" y1="-65" x2="54.4" y2="-60.6"/>
				<polygon id="XMLID_00000170959973598432685910000016990283194890322327_" class="st2" points="60.6,-75.6 56.2,-65 45.6,-60.6 
					35,-65 30.6,-75.6 35,-86.2 45.6,-90.6 56.2,-86.2 				"/>
			</g>
		</g>
		<g class="st1">
			<g>
				<polygon id="XMLID_00000052823623205164727000000001508327220486665123_" class="st2" points="30.6,-75.6 26.2,-65 15.6,-60.6 
					5,-65 0.6,-75.6 5,-86.2 15.6,-90.6 26.2,-86.2 				"/>
			</g>
		</g>
	</g>
</pattern>
<g class="st4">
	<line class="st5" x1="4.4" y1="4.4" x2="0" y2="6.2"/>
	<line class="st5" x1="4.4" y1="4.4" x2="6.2" y2="0"/>
	<line class="st5" x1="4.4" y1="25.6" x2="6.2" y2="30"/>
	<line class="st5" x1="4.4" y1="25.6" x2="0" y2="23.8"/>
	<line class="st5" x1="25.6" y1="25.6" x2="30" y2="23.8"/>
	<line class="st5" x1="25.6" y1="25.6" x2="23.8" y2="30"/>
	<line class="st5" x1="23.8" y1="0" x2="25.6" y2="4.4"/>
	<line class="st5" x1="2.2" y1="9.7" x2="2.2" y2="9.7"/>
	<line class="st5" x1="2.2" y1="20.3" x2="2.2" y2="20.3"/>
	<line class="st5" x1="15" y1="30" x2="4.4" y2="25.6"/>
	<line class="st5" x1="2.2" y1="20.3" x2="2.2" y2="20.3"/>
	<line class="st5" x1="15" y1="30" x2="25.6" y2="25.6"/>
	<line class="st5" x1="25.6" y1="25.6" x2="27.8" y2="20.3"/>
	<line class="st5" x1="2.2" y1="9.7" x2="2.2" y2="9.7"/>
	<polyline class="st5" points="2.2,9.7 0,15 2.2,20.3 	"/>
	<line class="st5" x1="2.2" y1="20.3" x2="4.4" y2="25.6"/>
	<line class="st5" x1="2.2" y1="9.7" x2="2.2" y2="9.7"/>
	<line class="st5" x1="27.8" y1="20.3" x2="30" y2="15"/>
	<line class="st5" x1="27.8" y1="9.7" x2="30" y2="15"/>
	<line class="st5" x1="4.4" y1="4.4" x2="2.2" y2="9.7"/>
	<polyline class="st5" points="4.4,4.4 15,0 25.6,4.4 	"/>
	<line class="st5" x1="2.2" y1="20.3" x2="2.2" y2="20.3"/>
	<line class="st5" x1="25.6" y1="4.4" x2="27.8" y2="9.7"/>
	<line class="st5" x1="25.6" y1="4.4" x2="30" y2="6.2"/>
	<polyline class="st5" points="9.7,27.8 15,24.7 20.3,27.8 	"/>
	<polyline class="st5" points="2.2,20.3 5.3,15 2.2,9.7 	"/>
	<polyline class="st5" points="9.7,27.8 8.1,21.9 2.2,20.3 	"/>
	<polyline class="st5" points="9.7,2.2 8.1,8.1 2.2,9.7 	"/>
	<line class="st5" x1="2.2" y1="9.7" x2="2.2" y2="9.7"/>
	<polyline class="st5" points="20.3,2.2 15,5.3 9.7,2.2 	"/>
	<line class="st5" x1="2.2" y1="20.3" x2="2.2" y2="20.3"/>
	<polyline class="st5" points="20.3,27.8 21.9,21.9 27.8,20.3 	"/>
	<line class="st5" x1="2.2" y1="20.3" x2="2.2" y2="20.3"/>
	<polyline class="st5" points="27.8,20.3 24.7,15 27.8,9.7 	"/>
	<polyline class="st5" points="20.3,2.2 21.9,8.1 27.8,9.7 	"/>
	<line class="st5" x1="2.2" y1="9.7" x2="2.2" y2="9.7"/>
	<line class="st5" x1="2.2" y1="20.3" x2="2.2" y2="20.3"/>
	<line class="st5" x1="2.2" y1="9.7" x2="2.2" y2="9.7"/>
	<line class="st5" x1="2.2" y1="9.7" x2="2.2" y2="9.7"/>
	<line class="st5" x1="2.2" y1="20.3" x2="2.2" y2="20.3"/>
	<line class="st5" x1="30" y1="6.2" x2="34.4" y2="4.4"/>
	<line class="st5" x1="36.2" y1="0" x2="34.4" y2="4.4"/>
	<line class="st5" x1="34.4" y1="25.6" x2="36.2" y2="30"/>
	<line class="st5" x1="34.4" y1="25.6" x2="30" y2="23.8"/>
	<line class="st5" x1="55.6" y1="25.6" x2="60" y2="23.8"/>
	<line class="st5" x1="55.6" y1="25.6" x2="53.8" y2="30"/>
	<line class="st5" x1="53.8" y1="0" x2="55.6" y2="4.4"/>
	<line class="st5" x1="32.2" y1="9.7" x2="32.2" y2="9.7"/>
	<polyline class="st5" points="57.8,20.3 60,15 57.8,9.7 	"/>
	<line class="st5" x1="32.2" y1="20.3" x2="32.2" y2="20.3"/>
	<line class="st5" x1="32.2" y1="9.7" x2="32.2" y2="9.7"/>
	<polyline class="st5" points="55.6,4.4 45,0 34.4,4.4 	"/>
	<line class="st5" x1="32.2" y1="9.7" x2="32.2" y2="9.7"/>
	<line class="st5" x1="45" y1="30" x2="55.6" y2="25.6"/>
	<line class="st5" x1="55.6" y1="4.4" x2="57.8" y2="9.7"/>
	<line class="st5" x1="32.2" y1="20.3" x2="32.2" y2="20.3"/>
	<line class="st5" x1="34.4" y1="4.4" x2="32.2" y2="9.7"/>
	<line class="st5" x1="45" y1="30" x2="34.4" y2="25.6"/>
	<line class="st5" x1="55.6" y1="25.6" x2="57.8" y2="20.3"/>
	<line class="st5" x1="32.2" y1="20.3" x2="32.2" y2="20.3"/>
	<line class="st5" x1="30" y1="15" x2="32.2" y2="20.3"/>
	<line class="st5" x1="32.2" y1="9.7" x2="30" y2="15"/>
	<line class="st5" x1="32.2" y1="20.3" x2="34.4" y2="25.6"/>
	<line class="st5" x1="55.6" y1="4.4" x2="60" y2="6.2"/>
	<polyline class="st5" points="39.7,2.2 45,5.3 50.3,2.2 	"/>
	<line class="st5" x1="32.2" y1="9.7" x2="32.2" y2="9.7"/>
	<polyline class="st5" points="50.3,2.2 51.9,8.1 57.8,9.7 	"/>
	<polyline class="st5" points="57.8,20.3 54.7,15 57.8,9.7 	"/>
	<polyline class="st5" points="50.3,27.8 51.9,21.9 57.8,20.3 	"/>
	<line class="st5" x1="32.2" y1="20.3" x2="32.2" y2="20.3"/>
	<polyline class="st5" points="50.3,27.8 45,24.7 39.7,27.8 	"/>
	<line class="st5" x1="32.2" y1="9.7" x2="32.2" y2="9.7"/>
	<polyline class="st5" points="39.7,27.8 38.1,21.9 32.2,20.3 	"/>
	<polyline class="st5" points="39.7,2.2 38.1,8.1 32.2,9.7 	"/>
	<line class="st5" x1="32.2" y1="20.3" x2="32.2" y2="20.3"/>
	<polyline class="st5" points="32.2,9.7 35.3,15 32.2,20.3 	"/>
	<line class="st5" x1="32.2" y1="20.3" x2="32.2" y2="20.3"/>
	<line class="st5" x1="32.2" y1="9.7" x2="32.2" y2="9.7"/>
	<line class="st5" x1="32.2" y1="20.3" x2="32.2" y2="20.3"/>
	<line class="st5" x1="32.2" y1="9.7" x2="32.2" y2="9.7"/>
	<line class="st5" x1="0" y1="36.2" x2="4.4" y2="34.4"/>
	<line class="st5" x1="6.2" y1="30" x2="4.4" y2="34.4"/>
	<line class="st5" x1="4.4" y1="55.6" x2="6.2" y2="60"/>
	<line class="st5" x1="0" y1="53.8" x2="4.4" y2="55.6"/>
	<line class="st5" x1="25.6" y1="55.6" x2="30" y2="53.8"/>
	<line class="st5" x1="25.6" y1="55.6" x2="23.8" y2="60"/>
	<line class="st5" x1="25.6" y1="34.4" x2="23.8" y2="30"/>
	<polyline class="st5" points="25.6,55.6 15,60 4.4,55.6 	"/>
	<line class="st5" x1="4.4" y1="34.4" x2="2.2" y2="39.7"/>
	<polyline class="st5" points="2.2,39.7 0,45 2.2,50.3 	"/>
	<line class="st5" x1="27.8" y1="50.3" x2="30" y2="45"/>
	<line class="st5" x1="27.8" y1="39.7" x2="30" y2="45"/>
	<line class="st5" x1="2.2" y1="39.7" x2="2.2" y2="39.7"/>
	<line class="st5" x1="2.2" y1="50.3" x2="4.4" y2="55.6"/>
	<line class="st5" x1="25.6" y1="55.6" x2="27.8" y2="50.3"/>
	<line class="st5" x1="15" y1="30" x2="25.6" y2="34.4"/>
	<line class="st5" x1="2.2" y1="50.3" x2="2.2" y2="50.3"/>
	<line class="st5" x1="2.2" y1="39.7" x2="2.2" y2="39.7"/>
	<line class="st5" x1="2.2" y1="39.7" x2="2.2" y2="39.7"/>
	<line class="st5" x1="27.8" y1="39.7" x2="25.6" y2="34.4"/>
	<line class="st5" x1="2.2" y1="50.3" x2="2.2" y2="50.3"/>
	<line class="st5" x1="15" y1="30" x2="4.4" y2="34.4"/>
	<line class="st5" x1="2.2" y1="50.3" x2="2.2" y2="50.3"/>
	<line class="st5" x1="25.6" y1="34.4" x2="30" y2="36.2"/>
	<line class="st5" x1="2.2" y1="50.3" x2="2.2" y2="50.3"/>
	<polyline class="st5" points="20.3,57.8 15,54.7 9.7,57.8 	"/>
	<line class="st5" x1="2.2" y1="39.7" x2="2.2" y2="39.7"/>
	<polyline class="st5" points="9.7,32.2 15,35.3 20.3,32.2 	"/>
	<polyline class="st5" points="9.7,32.2 8.1,38.1 2.2,39.7 	"/>
	<line class="st5" x1="2.2" y1="39.7" x2="2.2" y2="39.7"/>
	<polyline class="st5" points="27.8,50.3 24.7,45 27.8,39.7 	"/>
	<polyline class="st5" points="2.2,39.7 5.3,45 2.2,50.3 	"/>
	<polyline class="st5" points="20.3,32.2 21.9,38.1 27.8,39.7 	"/>
	<polyline class="st5" points="9.7,57.8 8.1,51.9 2.2,50.3 	"/>
	<polyline class="st5" points="20.3,57.8 21.9,51.9 27.8,50.3 	"/>
	<line class="st5" x1="2.2" y1="50.3" x2="2.2" y2="50.3"/>
	<line class="st5" x1="2.2" y1="50.3" x2="2.2" y2="50.3"/>
	<line class="st5" x1="2.2" y1="39.7" x2="2.2" y2="39.7"/>
	<line class="st5" x1="2.2" y1="39.7" x2="2.2" y2="39.7"/>
	<line class="st5" x1="2.2" y1="50.3" x2="2.2" y2="50.3"/>
	<line class="st5" x1="30" y1="36.2" x2="34.4" y2="34.4"/>
	<line class="st5" x1="36.2" y1="30" x2="34.4" y2="34.4"/>
	<line class="st5" x1="34.4" y1="55.6" x2="36.2" y2="60"/>
	<line class="st5" x1="30" y1="53.8" x2="34.4" y2="55.6"/>
	<line class="st5" x1="55.6" y1="55.6" x2="60" y2="53.8"/>
	<line class="st5" x1="55.6" y1="55.6" x2="53.8" y2="60"/>
	<line class="st5" x1="55.6" y1="34.4" x2="53.8" y2="30"/>
	<line class="st5" x1="32.2" y1="50.3" x2="32.2" y2="50.3"/>
	<polyline class="st5" points="57.8,50.3 60,45 57.8,39.7 	"/>
	<line class="st5" x1="45" y1="30" x2="55.6" y2="34.4"/>
	<line class="st5" x1="30" y1="45" x2="32.2" y2="39.7"/>
	<line class="st5" x1="30" y1="45" x2="32.2" y2="50.3"/>
	<line class="st5" x1="45" y1="30" x2="34.4" y2="34.4"/>
	<polyline class="st5" points="55.6,55.6 45,60 34.4,55.6 	"/>
	<line class="st5" x1="55.6" y1="55.6" x2="57.8" y2="50.3"/>
	<line class="st5" x1="57.8" y1="39.7" x2="55.6" y2="34.4"/>
	<line class="st5" x1="34.4" y1="34.4" x2="32.2" y2="39.7"/>
	<line class="st5" x1="32.2" y1="39.7" x2="32.2" y2="39.7"/>
	<line class="st5" x1="32.2" y1="50.3" x2="34.4" y2="55.6"/>
	<line class="st5" x1="32.2" y1="39.7" x2="32.2" y2="39.7"/>
	<line class="st5" x1="32.2" y1="50.3" x2="32.2" y2="50.3"/>
	<line class="st5" x1="32.2" y1="50.3" x2="32.2" y2="50.3"/>
	<line class="st5" x1="32.2" y1="39.7" x2="32.2" y2="39.7"/>
	<line class="st5" x1="55.6" y1="34.4" x2="60" y2="36.2"/>
	<polyline class="st5" points="50.3,32.2 51.9,38.1 57.8,39.7 	"/>
	<polyline class="st5" points="39.7,57.8 38.1,51.9 32.2,50.3 	"/>
	<line class="st5" x1="32.2" y1="39.7" x2="32.2" y2="39.7"/>
	<line class="st5" x1="32.2" y1="39.7" x2="32.2" y2="39.7"/>
	<polyline class="st5" points="39.7,32.2 45,35.3 50.3,32.2 	"/>
	<polyline class="st5" points="32.2,39.7 35.3,45 32.2,50.3 	"/>
	<polyline class="st5" points="50.3,57.8 51.9,51.9 57.8,50.3 	"/>
	<polyline class="st5" points="50.3,57.8 45,54.7 39.7,57.8 	"/>
	<polyline class="st5" points="57.8,50.3 54.7,45 57.8,39.7 	"/>
	<polyline class="st5" points="39.7,32.2 38.1,38.1 32.2,39.7 	"/>
	<line class="st5" x1="32.2" y1="50.3" x2="32.2" y2="50.3"/>
	<line class="st5" x1="32.2" y1="50.3" x2="32.2" y2="50.3"/>
	<line class="st5" x1="32.2" y1="50.3" x2="32.2" y2="50.3"/>
	<line class="st5" x1="32.2" y1="50.3" x2="32.2" y2="50.3"/>
	<line class="st5" x1="32.2" y1="39.7" x2="32.2" y2="39.7"/>
	<line class="st5" x1="32.2" y1="39.7" x2="32.2" y2="39.7"/>
</g>
<rect x="-74.5" y="-13.5" class="st6" width="19" height="34"/>
<rect x="-130.5" y="-40.5" class="st6" width="46" height="45"/>
</svg>
