<?xml version="1.0" encoding="utf-8"?>
<!-- Generator: Adobe Illustrator 25.4.1, SVG Export Plug-In . SVG Version: 6.00 Build 0)  -->
<svg version="1.1" id="Layer_1" xmlns="http://www.w3.org/2000/svg" xmlns:xlink="http://www.w3.org/1999/xlink" x="0px" y="0px"
	 viewBox="0 0 60 60" style="enable-background:new 0 0 60 60;" xml:space="preserve">
<style type="text/css">
	.st0{opacity:3.000000e-02;}
	.st1{fill:none;stroke:#46726C;stroke-linecap:round;stroke-linejoin:round;stroke-miterlimit:10;}
</style>
<g class="st0">
	<line class="st1" x1="15" y1="0" x2="7.6" y2="3.1"/>
	<line class="st1" x1="3.2" y1="7.5" x2="0.1" y2="6.2"/>
	<line class="st1" x1="7.6" y1="3.1" x2="6.3" y2="0"/>
	<polyline class="st1" points="3.2,7.5 4.5,4.4 7.6,3.1 	"/>
	<line class="st1" x1="3.2" y1="7.5" x2="0.1" y2="15"/>
	<line class="st1" x1="26.9" y1="7.5" x2="30" y2="15"/>
	<line class="st1" x1="15" y1="0" x2="22.5" y2="3.1"/>
	<line class="st1" x1="22.5" y1="3.1" x2="23.8" y2="0"/>
	<polyline class="st1" points="26.9,7.5 25.6,4.4 22.5,3.1 	"/>
	<line class="st1" x1="30" y1="6.2" x2="26.9" y2="7.5"/>
	<line class="st1" x1="3.2" y1="22.4" x2="0.1" y2="15"/>
	<line class="st1" x1="7.6" y1="26.8" x2="6.3" y2="29.9"/>
	<line class="st1" x1="3.2" y1="22.4" x2="0.1" y2="23.7"/>
	<polyline class="st1" points="3.2,22.4 4.5,25.5 7.6,26.8 	"/>
	<line class="st1" x1="7.6" y1="26.8" x2="15" y2="29.9"/>
	<line class="st1" x1="22.5" y1="26.8" x2="15" y2="29.9"/>
	<line class="st1" x1="30" y1="15" x2="26.9" y2="22.4"/>
	<line class="st1" x1="12.5" y1="15" x2="11.9" y2="13.7"/>
	<line class="st1" x1="10.7" y1="10.6" x2="11.9" y2="13.7"/>
	<line class="st1" x1="12.5" y1="15" x2="13.2" y2="16.8"/>
	<line class="st1" x1="7.6" y1="3.1" x2="10.7" y2="10.6"/>
	<line class="st1" x1="15" y1="12.4" x2="16.9" y2="13.1"/>
	<line class="st1" x1="15" y1="12.4" x2="13.8" y2="11.9"/>
	<line class="st1" x1="3.2" y1="7.5" x2="10.7" y2="10.6"/>
	<line class="st1" x1="10.7" y1="10.6" x2="13.8" y2="11.9"/>
	<line class="st1" x1="26.9" y1="7.5" x2="19.4" y2="10.6"/>
	<line class="st1" x1="16.3" y1="11.9" x2="15" y2="12.4"/>
	<line class="st1" x1="15" y1="12.4" x2="13.2" y2="13.1"/>
	<line class="st1" x1="16.3" y1="11.9" x2="19.4" y2="10.6"/>
	<line class="st1" x1="16.9" y1="16.8" x2="17.6" y2="15"/>
	<line class="st1" x1="17.6" y1="15" x2="18.1" y2="13.7"/>
	<line class="st1" x1="19.4" y1="10.6" x2="18.1" y2="13.7"/>
	<line class="st1" x1="22.5" y1="3.1" x2="19.4" y2="10.6"/>
	<line class="st1" x1="15" y1="17.5" x2="16.9" y2="16.8"/>
	<line class="st1" x1="3.2" y1="22.4" x2="10.7" y2="19.3"/>
	<line class="st1" x1="13.8" y1="18.1" x2="15" y2="17.5"/>
	<line class="st1" x1="10.7" y1="19.3" x2="13.8" y2="18.1"/>
	<line class="st1" x1="7.6" y1="26.8" x2="10.7" y2="19.3"/>
	<line class="st1" x1="12.5" y1="15" x2="13.2" y2="13.1"/>
	<line class="st1" x1="10.7" y1="19.3" x2="11.9" y2="16.2"/>
	<line class="st1" x1="11.9" y1="16.2" x2="12.5" y2="15"/>
	<line class="st1" x1="17.6" y1="15" x2="18.1" y2="16.2"/>
	<line class="st1" x1="22.5" y1="26.8" x2="19.4" y2="19.3"/>
	<line class="st1" x1="19.4" y1="19.3" x2="18.1" y2="16.2"/>
	<line class="st1" x1="16.9" y1="13.1" x2="17.6" y2="15"/>
	<line class="st1" x1="16.3" y1="18.1" x2="19.4" y2="19.3"/>
	<line class="st1" x1="15" y1="17.5" x2="13.2" y2="16.8"/>
	<line class="st1" x1="15" y1="17.5" x2="16.3" y2="18.1"/>
	<line class="st1" x1="26.9" y1="22.4" x2="19.4" y2="19.3"/>
	<line class="st1" x1="26.9" y1="22.4" x2="30" y2="23.7"/>
	<polyline class="st1" points="22.5,26.8 25.6,25.5 26.9,22.4 	"/>
	<line class="st1" x1="23.8" y1="29.9" x2="22.5" y2="26.8"/>
	<polyline class="st1" points="0.1,4.3 2.3,5.2 3.1,3.1 5.3,2.2 4.4,0 	"/>
	<polyline class="st1" points="25.7,0 24.8,2.2 26.9,3.1 27.8,5.2 30,4.3 	"/>
	<polyline class="st1" points="4.3,30 5.2,27.8 3.1,26.9 2.2,24.8 0,25.7 	"/>
	<polyline class="st1" points="25.7,30 24.8,27.8 26.9,26.9 27.8,24.8 30,25.7 	"/>
	<line class="st1" x1="25.7" y1="30" x2="25.7" y2="30"/>
	<line class="st1" x1="45" y1="0" x2="37.6" y2="3.1"/>
	<polyline class="st1" points="33.2,7.5 34.5,4.4 37.6,3.1 	"/>
	<line class="st1" x1="33.2" y1="7.5" x2="30.1" y2="6.2"/>
	<line class="st1" x1="37.6" y1="3.1" x2="36.3" y2="0"/>
	<line class="st1" x1="33.2" y1="7.5" x2="30.1" y2="15"/>
	<line class="st1" x1="56.9" y1="7.5" x2="60" y2="15"/>
	<line class="st1" x1="45" y1="0" x2="52.5" y2="3.1"/>
	<line class="st1" x1="56.9" y1="7.5" x2="60" y2="6.2"/>
	<line class="st1" x1="52.5" y1="3.1" x2="53.8" y2="0"/>
	<polyline class="st1" points="56.9,7.5 55.6,4.4 52.5,3.1 	"/>
	<line class="st1" x1="33.2" y1="22.4" x2="30.1" y2="15"/>
	<line class="st1" x1="37.6" y1="26.8" x2="36.3" y2="29.9"/>
	<line class="st1" x1="33.2" y1="22.4" x2="30.1" y2="23.7"/>
	<polyline class="st1" points="33.2,22.4 34.5,25.5 37.6,26.8 	"/>
	<line class="st1" x1="37.6" y1="26.8" x2="45" y2="29.9"/>
	<line class="st1" x1="52.5" y1="26.8" x2="45" y2="29.9"/>
	<line class="st1" x1="60" y1="15" x2="56.9" y2="22.4"/>
	<line class="st1" x1="42.5" y1="15" x2="41.9" y2="13.7"/>
	<line class="st1" x1="40.7" y1="10.6" x2="41.9" y2="13.7"/>
	<line class="st1" x1="42.5" y1="15" x2="43.2" y2="16.8"/>
	<line class="st1" x1="37.6" y1="3.1" x2="40.7" y2="10.6"/>
	<line class="st1" x1="45" y1="12.4" x2="46.9" y2="13.1"/>
	<line class="st1" x1="45" y1="12.4" x2="43.8" y2="11.9"/>
	<line class="st1" x1="33.2" y1="7.5" x2="40.7" y2="10.6"/>
	<line class="st1" x1="40.7" y1="10.6" x2="43.8" y2="11.9"/>
	<line class="st1" x1="56.9" y1="7.5" x2="49.4" y2="10.6"/>
	<line class="st1" x1="46.3" y1="11.9" x2="45" y2="12.4"/>
	<line class="st1" x1="45" y1="12.4" x2="43.2" y2="13.1"/>
	<line class="st1" x1="46.3" y1="11.9" x2="49.4" y2="10.6"/>
	<line class="st1" x1="46.9" y1="16.8" x2="47.6" y2="15"/>
	<line class="st1" x1="47.6" y1="15" x2="48.1" y2="13.7"/>
	<line class="st1" x1="49.4" y1="10.6" x2="48.1" y2="13.7"/>
	<line class="st1" x1="52.5" y1="3.1" x2="49.4" y2="10.6"/>
	<line class="st1" x1="45" y1="17.5" x2="46.9" y2="16.8"/>
	<line class="st1" x1="33.2" y1="22.4" x2="40.7" y2="19.3"/>
	<line class="st1" x1="43.8" y1="18.1" x2="45" y2="17.5"/>
	<line class="st1" x1="40.7" y1="19.3" x2="43.8" y2="18.1"/>
	<line class="st1" x1="37.6" y1="26.8" x2="40.7" y2="19.3"/>
	<line class="st1" x1="42.5" y1="15" x2="43.2" y2="13.1"/>
	<line class="st1" x1="40.7" y1="19.3" x2="41.9" y2="16.2"/>
	<line class="st1" x1="41.9" y1="16.2" x2="42.5" y2="15"/>
	<line class="st1" x1="47.6" y1="15" x2="48.1" y2="16.2"/>
	<line class="st1" x1="52.5" y1="26.8" x2="49.4" y2="19.3"/>
	<line class="st1" x1="49.4" y1="19.3" x2="48.1" y2="16.2"/>
	<line class="st1" x1="46.9" y1="13.1" x2="47.6" y2="15"/>
	<line class="st1" x1="46.3" y1="18.1" x2="49.4" y2="19.3"/>
	<line class="st1" x1="45" y1="17.5" x2="43.2" y2="16.8"/>
	<line class="st1" x1="45" y1="17.5" x2="46.3" y2="18.1"/>
	<line class="st1" x1="56.9" y1="22.4" x2="49.4" y2="19.3"/>
	<line class="st1" x1="53.8" y1="29.9" x2="52.5" y2="26.8"/>
	<line class="st1" x1="56.9" y1="22.4" x2="60" y2="23.7"/>
	<polyline class="st1" points="52.5,26.8 55.6,25.5 56.9,22.4 	"/>
	<polyline class="st1" points="30.1,4.3 32.3,5.2 33.1,3.1 35.3,2.2 34.4,0 	"/>
	<polyline class="st1" points="55.7,0 54.8,2.2 56.9,3.1 57.8,5.2 60,4.3 	"/>
	<polyline class="st1" points="34.3,30 35.2,27.8 33.1,26.9 32.2,24.8 30,25.7 	"/>
	<line class="st1" x1="55.7" y1="30" x2="55.7" y2="30"/>
	<polyline class="st1" points="60,25.7 57.8,24.8 56.9,26.9 54.8,27.8 55.7,30 	"/>
	<line class="st1" x1="7.6" y1="33.1" x2="15" y2="30"/>
	<line class="st1" x1="3.2" y1="37.5" x2="0.1" y2="36.2"/>
	<polyline class="st1" points="3.2,37.5 4.5,34.4 7.6,33.1 	"/>
	<line class="st1" x1="7.6" y1="33.1" x2="6.3" y2="30"/>
	<line class="st1" x1="3.2" y1="37.5" x2="0.1" y2="45"/>
	<line class="st1" x1="26.9" y1="37.5" x2="30" y2="45"/>
	<line class="st1" x1="22.5" y1="33.1" x2="15" y2="30"/>
	<line class="st1" x1="26.9" y1="37.5" x2="30" y2="36.2"/>
	<polyline class="st1" points="26.9,37.5 25.6,34.4 22.5,33.1 	"/>
	<line class="st1" x1="23.8" y1="30" x2="22.5" y2="33.1"/>
	<line class="st1" x1="3.2" y1="52.4" x2="0.1" y2="45"/>
	<line class="st1" x1="3.2" y1="52.4" x2="0.1" y2="53.7"/>
	<polyline class="st1" points="3.2,52.4 4.5,55.5 7.6,56.8 	"/>
	<line class="st1" x1="7.6" y1="56.8" x2="6.3" y2="59.9"/>
	<line class="st1" x1="15" y1="59.9" x2="7.6" y2="56.8"/>
	<line class="st1" x1="15" y1="59.9" x2="22.5" y2="56.8"/>
	<line class="st1" x1="26.9" y1="52.4" x2="30" y2="45"/>
	<line class="st1" x1="12.5" y1="45" x2="11.9" y2="43.7"/>
	<line class="st1" x1="10.7" y1="40.6" x2="11.9" y2="43.7"/>
	<line class="st1" x1="12.5" y1="45" x2="13.2" y2="46.8"/>
	<line class="st1" x1="7.6" y1="33.1" x2="10.7" y2="40.6"/>
	<line class="st1" x1="15" y1="42.4" x2="16.9" y2="43.1"/>
	<line class="st1" x1="13.8" y1="41.9" x2="15" y2="42.4"/>
	<line class="st1" x1="3.2" y1="37.5" x2="10.7" y2="40.6"/>
	<line class="st1" x1="10.7" y1="40.6" x2="13.8" y2="41.9"/>
	<line class="st1" x1="26.9" y1="37.5" x2="19.4" y2="40.6"/>
	<line class="st1" x1="15" y1="42.4" x2="16.3" y2="41.9"/>
	<line class="st1" x1="15" y1="42.4" x2="13.2" y2="43.1"/>
	<line class="st1" x1="19.4" y1="40.6" x2="16.3" y2="41.9"/>
	<line class="st1" x1="17.6" y1="45" x2="16.9" y2="46.8"/>
	<line class="st1" x1="17.6" y1="45" x2="18.1" y2="43.7"/>
	<line class="st1" x1="19.4" y1="40.6" x2="18.1" y2="43.7"/>
	<line class="st1" x1="22.5" y1="33.1" x2="19.4" y2="40.6"/>
	<line class="st1" x1="15" y1="47.5" x2="16.9" y2="46.8"/>
	<line class="st1" x1="3.2" y1="52.4" x2="10.7" y2="49.3"/>
	<line class="st1" x1="15" y1="47.5" x2="13.8" y2="48.1"/>
	<line class="st1" x1="10.7" y1="49.3" x2="13.8" y2="48.1"/>
	<line class="st1" x1="7.6" y1="56.8" x2="10.7" y2="49.3"/>
	<line class="st1" x1="12.5" y1="45" x2="13.2" y2="43.1"/>
	<line class="st1" x1="10.7" y1="49.3" x2="11.9" y2="46.2"/>
	<line class="st1" x1="11.9" y1="46.2" x2="12.5" y2="45"/>
	<line class="st1" x1="17.6" y1="45" x2="18.1" y2="46.2"/>
	<line class="st1" x1="22.5" y1="56.8" x2="19.4" y2="49.3"/>
	<line class="st1" x1="19.4" y1="49.3" x2="18.1" y2="46.2"/>
	<line class="st1" x1="17.6" y1="45" x2="16.9" y2="43.1"/>
	<line class="st1" x1="19.4" y1="49.3" x2="16.3" y2="48.1"/>
	<line class="st1" x1="15" y1="47.5" x2="13.2" y2="46.8"/>
	<line class="st1" x1="15" y1="47.5" x2="16.3" y2="48.1"/>
	<line class="st1" x1="26.9" y1="52.4" x2="19.4" y2="49.3"/>
	<line class="st1" x1="22.5" y1="56.8" x2="23.8" y2="59.9"/>
	<polyline class="st1" points="26.9,52.4 25.6,55.5 22.5,56.8 	"/>
	<line class="st1" x1="26.9" y1="52.4" x2="30" y2="53.7"/>
	<polyline class="st1" points="0.1,34.3 2.3,35.2 3.1,33.1 5.3,32.2 4.4,30 	"/>
	<polyline class="st1" points="25.7,30 24.8,32.2 26.9,33.1 27.8,35.2 30,34.3 	"/>
	<line class="st1" x1="25.7" y1="30" x2="25.7" y2="30"/>
	<polyline class="st1" points="4.3,60 5.2,57.8 3.1,56.9 2.2,54.8 0,55.7 	"/>
	<polyline class="st1" points="30,55.7 27.8,54.8 26.9,56.9 24.8,57.8 25.7,60 	"/>
	<line class="st1" x1="37.6" y1="33.1" x2="45" y2="30"/>
	<polyline class="st1" points="33.2,37.5 34.5,34.4 37.6,33.1 	"/>
	<line class="st1" x1="33.2" y1="37.5" x2="30.1" y2="36.2"/>
	<line class="st1" x1="37.6" y1="33.1" x2="36.3" y2="30"/>
	<line class="st1" x1="33.2" y1="37.5" x2="30.1" y2="45"/>
	<line class="st1" x1="56.9" y1="37.5" x2="60" y2="45"/>
	<line class="st1" x1="52.5" y1="33.1" x2="45" y2="30"/>
	<line class="st1" x1="53.8" y1="30" x2="52.5" y2="33.1"/>
	<line class="st1" x1="56.9" y1="37.5" x2="60" y2="36.2"/>
	<polyline class="st1" points="56.9,37.5 55.6,34.4 52.5,33.1 	"/>
	<line class="st1" x1="33.2" y1="52.4" x2="30.1" y2="45"/>
	<polyline class="st1" points="33.2,52.4 34.5,55.5 37.6,56.8 	"/>
	<line class="st1" x1="33.2" y1="52.4" x2="30.1" y2="53.7"/>
	<line class="st1" x1="37.6" y1="56.8" x2="36.3" y2="59.9"/>
	<line class="st1" x1="45" y1="59.9" x2="37.6" y2="56.8"/>
	<line class="st1" x1="45" y1="59.9" x2="52.5" y2="56.8"/>
	<line class="st1" x1="56.9" y1="52.4" x2="60" y2="45"/>
	<line class="st1" x1="42.5" y1="45" x2="41.9" y2="43.7"/>
	<line class="st1" x1="40.7" y1="40.6" x2="41.9" y2="43.7"/>
	<line class="st1" x1="42.5" y1="45" x2="43.2" y2="46.8"/>
	<line class="st1" x1="37.6" y1="33.1" x2="40.7" y2="40.6"/>
	<line class="st1" x1="45" y1="42.4" x2="46.9" y2="43.1"/>
	<line class="st1" x1="43.8" y1="41.9" x2="45" y2="42.4"/>
	<line class="st1" x1="33.2" y1="37.5" x2="40.7" y2="40.6"/>
	<line class="st1" x1="40.7" y1="40.6" x2="43.8" y2="41.9"/>
	<line class="st1" x1="56.9" y1="37.5" x2="49.4" y2="40.6"/>
	<line class="st1" x1="45" y1="42.4" x2="46.3" y2="41.9"/>
	<line class="st1" x1="45" y1="42.4" x2="43.2" y2="43.1"/>
	<line class="st1" x1="49.4" y1="40.6" x2="46.3" y2="41.9"/>
	<line class="st1" x1="47.6" y1="45" x2="46.9" y2="46.8"/>
	<line class="st1" x1="47.6" y1="45" x2="48.1" y2="43.7"/>
	<line class="st1" x1="49.4" y1="40.6" x2="48.1" y2="43.7"/>
	<line class="st1" x1="52.5" y1="33.1" x2="49.4" y2="40.6"/>
	<line class="st1" x1="45" y1="47.5" x2="46.9" y2="46.8"/>
	<line class="st1" x1="33.2" y1="52.4" x2="40.7" y2="49.3"/>
	<line class="st1" x1="45" y1="47.5" x2="43.8" y2="48.1"/>
	<line class="st1" x1="40.7" y1="49.3" x2="43.8" y2="48.1"/>
	<line class="st1" x1="37.6" y1="56.8" x2="40.7" y2="49.3"/>
	<line class="st1" x1="42.5" y1="45" x2="43.2" y2="43.1"/>
	<line class="st1" x1="40.7" y1="49.3" x2="41.9" y2="46.2"/>
	<line class="st1" x1="41.9" y1="46.2" x2="42.5" y2="45"/>
	<line class="st1" x1="47.6" y1="45" x2="48.1" y2="46.2"/>
	<line class="st1" x1="52.5" y1="56.8" x2="49.4" y2="49.3"/>
	<line class="st1" x1="49.4" y1="49.3" x2="48.1" y2="46.2"/>
	<line class="st1" x1="47.6" y1="45" x2="46.9" y2="43.1"/>
	<line class="st1" x1="49.4" y1="49.3" x2="46.3" y2="48.1"/>
	<line class="st1" x1="45" y1="47.5" x2="43.2" y2="46.8"/>
	<line class="st1" x1="45" y1="47.5" x2="46.3" y2="48.1"/>
	<line class="st1" x1="56.9" y1="52.4" x2="49.4" y2="49.3"/>
	<polyline class="st1" points="56.9,52.4 55.6,55.5 52.5,56.8 	"/>
	<line class="st1" x1="52.5" y1="56.8" x2="53.8" y2="59.9"/>
	<line class="st1" x1="56.9" y1="52.4" x2="60" y2="53.7"/>
	<polyline class="st1" points="30.1,34.3 32.3,35.2 33.1,33.1 35.3,32.2 34.4,30 	"/>
	<line class="st1" x1="55.7" y1="30" x2="55.7" y2="30"/>
	<polyline class="st1" points="55.7,30 54.8,32.2 56.9,33.1 57.8,35.2 60,34.3 	"/>
	<polyline class="st1" points="34.3,60 35.2,57.8 33.1,56.9 32.2,54.8 30,55.7 	"/>
	<polyline class="st1" points="60,55.7 57.8,54.8 56.9,56.9 54.8,57.8 55.7,60 	"/>
</g>
</svg>
