<svg viewBox="0 0 68 68" xmlns="http://www.w3.org/2000/svg">
  <defs>
    <style>
      .pattern-light {
        fill: none;
        stroke: #1a2e50;
        stroke-width: 0.8;
        stroke-linecap: round;
        stroke-linejoin: round;
        stroke-opacity: 0.1;
      }
      .pattern-dark {
        fill: none;
        stroke: #66b3ff;
        stroke-width: 0.8;
        stroke-linecap: round;
        stroke-linejoin: round;
        stroke-opacity: 0.15;
      }
    </style>
  </defs>
  
  <!-- Light mode pattern -->
  <g class="pattern-light">
    <line x1="59.9" y1="34" x2="54.6" y2="34"/>
    <polyline points="41.6,67.5 47,67.5 50.8,63.7 54.6,67.5 67.5,67.5"/>
    <polyline points="67.5,59.9 67.5,54.6 63.7,50.8 67.5,47 67.5,34"/>
    <polyline points="59.9,54.6 59.9,59.9 54.6,59.9"/>
    <polyline points="41.6,54.6 41.6,59.9 47,59.9"/>
    <polyline points="41.6,47 41.6,41.6 47,41.6"/>
    <polyline points="59.9,47 59.9,41.6 54.6,41.6"/>
    <polyline points="54.6,59.9 50.8,63.7 47,59.9"/>
    <polyline points="59.9,54.6 63.7,50.8 59.9,47"/>
    <polyline points="41.6,47 37.8,50.8 41.6,54.6"/>
    <polyline points="47,41.6 50.8,37.8 54.6,41.6"/>
    <polygon points="44.3,48.1 44.3,53.4 48.1,57.2 53.4,57.2 57.2,53.4 57.2,48.1 53.4,44.3 48.1,44.3"/>
    <polyline points="26.4,21 26.4,26.4 21,26.4"/>
    <polyline points="8.1,21 8.1,26.4 13.5,26.4"/>
    <polyline points="26.4,13.5 26.4,8.1 21,8.1"/>
    <polyline points="8.1,13.5 8.1,8.1 13.5,8.1"/>
    <polyline points="26.4,21 30.2,17.3 26.4,13.5"/>
    <polyline points="21,26.4 17.3,30.2 13.5,26.4"/>
    <polyline points="13.5,8.1 17.3,4.3 21,8.1"/>
    <polyline points="8.1,13.5 4.3,17.3 8.1,21"/>
    <polygon points="14.6,10.8 19.9,10.8 23.7,14.6 23.7,19.9 19.9,23.7 14.6,23.7 10.8,19.9 10.8,14.6"/>
  </g>
</svg>