<svg xmlns="http://www.w3.org/2000/svg" viewBox="0 0 68 68"><path d="M59.9 34h-5.3m-13 33.5H47l3.8-3.8 3.8 3.8h12.9m0-7.6v-5.3l-3.8-3.8 3.8-3.8V34m-7.6 20.6v5.3h-5.3m-13-5.3v5.3H47M41.6 47v-5.4H47M59.9 47v-5.4h-5.3m0 18.3-3.8 3.8-3.8-3.8m12.9-5.3 3.8-3.8-3.8-3.8m-18.3 0-3.8 3.8 3.8 3.8m5.4-13 3.8-3.8 3.8 3.8m-10.3 6.5v5.3l3.8 3.8h5.3l3.8-3.8v-5.3l-3.8-3.8h-5.3zM26.4 21v5.4H21M8.1 21v5.4h5.4m12.9-12.9V8.1H21M8.1 13.5V8.1h5.4M26.4 21l3.8-3.7-3.8-3.8M21 26.4l-3.7 3.8-3.8-3.8m0-18.3 3.8-3.8L21 8.1M8.1 13.5l-3.8 3.8L8.1 21m6.5-10.2h5.3l3.8 3.8v5.3l-3.8 3.8h-5.3l-3.8-3.8v-5.3z" style="fill:none;stroke:#1a2e50;stroke-width:.8;stroke-linecap:round;stroke-linejoin:round;stroke-opacity:.1"/></svg>